# xmcd CD database file
#
# Track frame offsets:
#	150
#	15328
#	33811
#	63178
#	90584
#
# Disc length: 2712 seconds
#
# Revision: 0
# Processed by: cddbd v1.5.2PL0 Copyright (c) Steve Scherf et al.
# Submitted via: jetAudio 7
#
DISCID=290a9605
DTITLE=慇承宗 兪麗拿  - 黃河、梁祝
DYEAR=2000
DGENRE=Chinese
TTITLE0=序曲-黄河船夫曲 - 殷承宗
TTITLE1=黄河頌 - 殷承宗
TTITLE2=黄河憤 - 殷承宗
TTITLE3=保衞黄河 - 殷承宗
TTITLE4=「梁祝」小提琴協奏曲 - 俞麗拿
EXTD=YEAR: 2000
EXTT0=
EXTT1=
EXTT2=
EXTT3=
EXTT4=
PLAYORDER=
